<?xml version="1.0" standalone="no"?>
<!DOCTYPE svg PUBLIC "-//W3C//DTD SVG 1.1//EN"
        "http://www.w3.org/Graphics/SVG/1.1/DTD/svg11.dtd">
<svg width="200" height="59" version="1.1"
     xmlns="http://www.w3.org/2000/svg">
    <g id="barcode" fill="#000000">
        <rect x="0.00" y="0.00" width="2.00" height="50.00"/>
        <rect x="3.00" y="0.00" width="1.00" height="50.00"/>
        <rect x="6.00" y="0.00" width="1.00" height="50.00"/>
        <rect x="11.00" y="0.00" width="1.00" height="50.00"/>
        <rect x="14.00" y="0.00" width="2.00" height="50.00"/>
        <rect x="18.00" y="0.00" width="3.00" height="50.00"/>
        <rect x="22.00" y="0.00" width="1.00" height="50.00"/>
        <rect x="25.00" y="0.00" width="2.00" height="50.00"/>
        <rect x="29.00" y="0.00" width="3.00" height="50.00"/>
        <rect x="33.00" y="0.00" width="1.00" height="50.00"/>
        <rect x="36.00" y="0.00" width="2.00" height="50.00"/>
        <rect x="40.00" y="0.00" width="3.00" height="50.00"/>
        <rect x="44.00" y="0.00" width="1.00" height="50.00"/>
        <rect x="47.00" y="0.00" width="2.00" height="50.00"/>
        <rect x="51.00" y="0.00" width="3.00" height="50.00"/>
        <rect x="55.00" y="0.00" width="1.00" height="50.00"/>
        <rect x="58.00" y="0.00" width="2.00" height="50.00"/>
        <rect x="62.00" y="0.00" width="3.00" height="50.00"/>
        <rect x="66.00" y="0.00" width="1.00" height="50.00"/>
        <rect x="69.00" y="0.00" width="2.00" height="50.00"/>
        <rect x="73.00" y="0.00" width="3.00" height="50.00"/>
        <rect x="77.00" y="0.00" width="1.00" height="50.00"/>
        <rect x="80.00" y="0.00" width="2.00" height="50.00"/>
        <rect x="84.00" y="0.00" width="3.00" height="50.00"/>
        <rect x="88.00" y="0.00" width="1.00" height="50.00"/>
        <rect x="91.00" y="0.00" width="2.00" height="50.00"/>
        <rect x="95.00" y="0.00" width="3.00" height="50.00"/>
        <rect x="99.00" y="0.00" width="1.00" height="50.00"/>
        <rect x="102.00" y="0.00" width="2.00" height="50.00"/>
        <rect x="106.00" y="0.00" width="3.00" height="50.00"/>
        <rect x="110.00" y="0.00" width="1.00" height="50.00"/>
        <rect x="113.00" y="0.00" width="2.00" height="50.00"/>
        <rect x="117.00" y="0.00" width="3.00" height="50.00"/>
        <rect x="121.00" y="0.00" width="1.00" height="50.00"/>
        <rect x="124.00" y="0.00" width="2.00" height="50.00"/>
        <rect x="128.00" y="0.00" width="3.00" height="50.00"/>
        <rect x="132.00" y="0.00" width="1.00" height="50.00"/>
        <rect x="135.00" y="0.00" width="2.00" height="50.00"/>
        <rect x="139.00" y="0.00" width="3.00" height="50.00"/>
        <rect x="143.00" y="0.00" width="1.00" height="50.00"/>
        <rect x="146.00" y="0.00" width="2.00" height="50.00"/>
        <rect x="150.00" y="0.00" width="3.00" height="50.00"/>
        <rect x="154.00" y="0.00" width="1.00" height="50.00"/>
        <rect x="157.00" y="0.00" width="2.00" height="50.00"/>
        <rect x="161.00" y="0.00" width="3.00" height="50.00"/>
        <rect x="165.00" y="0.00" width="1.00" height="50.00"/>
        <rect x="168.00" y="0.00" width="2.00" height="50.00"/>
        <rect x="172.00" y="0.00" width="3.00" height="50.00"/>
        <rect x="176.00" y="0.00" width="1.00" height="50.00"/>
        <rect x="178.00" y="0.00" width="1.00" height="50.00"/>
        <rect x="182.00" y="0.00" width="2.00" height="50.00"/>
        <rect x="187.00" y="0.00" width="2.00" height="50.00"/>
        <rect x="192.00" y="0.00" width="3.00" height="50.00"/>
        <rect x="196.00" y="0.00" width="1.00" height="50.00"/>
        <rect x="198.00" y="0.00" width="2.00" height="50.00"/>
    </g>
</svg>
