<?xml version="1.0" encoding="UTF-8"?>
<svg width="270px" height="253px" viewBox="0 0 270 253" version="1.1" xmlns="http://www.w3.org/2000/svg" xmlns:xlink="http://www.w3.org/1999/xlink">
    <!-- Generator: Sketch 43.1 (39012) - http://www.bohemiancoding.com/sketch -->
    <title>Slice 1</title>
    <desc>Created with Sketch.</desc>
    <defs></defs>
    <g id="Page-1" stroke="none" stroke-width="1" fill="none" fill-rule="evenodd">
        <g id="Group" fill-rule="nonzero" fill="#FFFFFF">
            <path d="M167.28,6.26 C173.41,0.2 183.18,-1.57 191.13,1.67 C198.97,4.72 204.7,12.56 205.11,20.99 C205.62,27.87 202.71,34.9 197.46,39.38 C191.85,44.35 183.76,46.01 176.59,43.98 C169.95,55.16 163.28,66.33 156.67,77.53 C153.56,75.3 150.29,73.34 146.86,71.65 C153.52,60.53 160.11,49.37 166.75,38.24 C158.21,29.71 158.26,14.41 167.28,6.26 Z M40.21,41.27 C44.43,35.29 51.74,31.62 59.06,31.98 C68.24,32.01 76.88,38.47 79.67,47.19 C81.72,53.04 80.93,59.59 78.07,65.03 C83.06,69.77 88.08,74.47 93.06,79.22 C90.18,81.71 87.58,84.51 85.24,87.52 C80.26,82.81 75.28,78.09 70.29,73.38 C65.67,75.99 60.26,77.39 54.97,76.46 C46.97,75.32 39.89,69.42 37.28,61.79 C34.86,55.01 35.95,47.08 40.21,41.27 L40.21,41.27 Z M117.42,80.69 C133.63,76.75 151.68,84.87 159.51,99.58 C164.68,108.89 165.67,120.39 162.22,130.46 C158.69,141.05 150.26,149.84 139.85,153.83 C129.8,157.74 118.07,157.23 108.49,152.26 C101.46,148.71 95.6,142.91 91.95,135.93 C86.55,125.81 86.16,113.23 90.76,102.74 C95.5,91.72 105.71,83.27 117.42,80.69 L117.42,80.69 Z M217.99,106.85 C225.59,104.01 234.64,105.83 240.6,111.31 C245.54,115.74 248.31,122.44 247.91,129.06 C247.65,135.89 243.98,142.48 238.34,146.33 C231.5,151.18 221.84,151.63 214.58,147.45 C208.63,144.17 204.66,138.06 203.39,131.45 C194.18,130.56 184.98,129.64 175.78,128.75 C176.48,125.01 176.83,121.22 176.94,117.42 C186.13,118.31 195.32,119.24 204.52,120.14 C206.98,114.14 211.79,109 217.99,106.85 L217.99,106.85 Z M41.62,140.32 C53.12,136.5 64.57,132.58 76.07,128.79 C76.97,132.5 78.22,136.11 79.75,139.61 C68.23,143.41 56.74,147.32 45.23,151.13 C45.59,158.24 42.64,165.49 37.04,169.96 C31.29,174.78 23.06,176.27 15.95,173.97 C9.97,172.09 4.88,167.55 2.36,161.81 C-1.22,153.85 0.27,143.79 6.35,137.45 C11.91,131.25 21.1,128.73 29.06,131.14 C34.21,132.53 38.53,136.05 41.62,140.32 L41.62,140.32 Z M154.62,203.5 C160.75,203.49 166.87,203.5 173,203.49 L173,252.63 C166.18,252.62 159.37,252.63 152.56,252.62 C148.62,245.47 144.69,238.32 140.75,231.18 L140.75,252.63 C134.62,252.62 128.5,252.63 122.37,252.63 L122.37,203.5 C129.19,203.49 136.02,203.5 142.84,203.49 C146.77,210.62 150.69,217.76 154.62,224.89 L154.62,203.5 Z M181.37,203.5 L219.38,203.5 C219.37,208.21 219.37,212.91 219.38,217.63 L199.75,217.63 L199.75,221 L218,221 L218,235.13 C211.91,235.12 205.83,235.12 199.75,235.13 L199.75,238.5 L220.75,238.5 L220.75,252.63 C207.62,252.62 194.5,252.63 181.37,252.63 L181.37,203.5 Z M224.25,219.63 L224.25,203.5 L269.25,203.5 L269.25,219.63 C264.83,219.62 260.42,219.63 256,219.63 L256,252.63 C249.83,252.62 243.66,252.63 237.5,252.63 L237.5,219.63 C233.08,219.63 228.67,219.62 224.25,219.63 Z" id="Shape"></path>
        </g>
        <g id="Group" transform="translate(122.000000, 165.000000)" fill-rule="nonzero" fill="#003C3B">
            <path d="M0.5,1.38 C4.29,1.37 8.08,1.36 11.87,1.37 C11.88,8.2 11.87,15.04 11.88,21.87 C15.79,21.87 19.71,21.87 23.62,21.88 C23.63,25.21 23.63,28.54 23.63,31.87 L0.5,31.87 C0.49,21.71 0.5,11.54 0.5,1.38 Z M27.25,1.37 L50.87,1.37 L50.87,10.12 C46.78,10.12 42.7,10.12 38.62,10.13 C38.62,10.66 38.63,11.72 38.64,12.25 L50,12.25 L50,21 C46.2,20.99 42.41,21 38.62,21.01 C38.62,21.54 38.63,22.59 38.64,23.12 C43.01,23.12 47.38,23.13 51.75,23.13 L51.75,31.87 C43.58,31.88 35.42,31.88 27.25,31.87 L27.25,1.37 Z M53.87,1.38 C63.2,1.36 72.54,1.38 81.87,1.37 C81.88,4.7 81.87,8.04 81.87,11.38 C79.08,11.38 76.29,11.37 73.5,11.38 L73.5,31.87 C69.71,31.87 65.92,31.88 62.13,31.87 C62.12,25.04 62.13,18.21 62.12,11.38 C59.37,11.37 56.63,11.38 53.88,11.37 C53.87,8.04 53.87,4.71 53.87,1.38 Z M86.56,1.38 C89.61,1.37 92.67,1.37 95.72,1.38 C93.98,5.75 92.22,10.11 90.49,14.49 C88.16,14.49 85.82,14.49 83.5,14.5 C84.51,10.12 85.53,5.75 86.56,1.38 Z M102.41,3.42 C108.58,-1.01 117.42,0.45 122.92,5.32 C121.55,7.52 120.15,9.7 118.78,11.9 C116.33,10.51 113.09,8.32 110.61,10.94 C114.36,13.28 119.4,14.07 121.86,18.11 C124.41,22.27 122.62,28.05 118.43,30.38 C111.68,34.24 102.64,32.59 96.97,27.49 C98.32,25.29 99.71,23.12 101.1,20.94 C103.96,22.52 108.12,25.27 110.92,22.18 C107.35,20.1 102.84,19.26 100.22,15.83 C97.32,11.99 98.46,6.07 102.41,3.42 Z" id="Shape"></path>
        </g>
    </g>
</svg>